<svg width="43" height="72" viewBox="0 0 43 72" fill="none" xmlns="http://www.w3.org/2000/svg">
<path d="M13.0625 21.2481C13.1531 20.4471 13.362 19.667 13.7173 18.9216C14.3651 17.5703 15.3611 16.5533 16.7125 15.8846C17.7921 15.3552 18.9345 15.1114 20.1187 15.0348C20.1953 15.0279 20.2649 15.007 20.3416 15C20.7804 15 21.2192 15 21.6581 15C22.1735 15.0697 22.6959 15.1114 23.2044 15.209C24.6115 15.4667 25.8792 16.0239 26.9171 17.02C28.0176 18.0788 28.6515 19.3883 28.8814 20.8929C28.958 21.3805 28.9859 21.882 28.9859 22.3766C28.9928 24.0065 28.9928 25.6434 28.9928 27.2734" stroke="white" stroke-miterlimit="10" stroke-linecap="round" stroke-linejoin="round"/>
<path d="M29 28.5481C29 28.5968 29 28.5063 29 28.5481" stroke="white" stroke-miterlimit="10" stroke-linecap="round" stroke-linejoin="round"/>
<path d="M29 29.8298C29 31.1115 29 32.3862 29 33.6678C29 34.8311 28.791 35.9456 28.2895 36.9974C27.6417 38.3417 26.6595 39.3587 25.3082 40.0135C23.7688 40.7658 22.1249 40.9538 20.4323 40.8912C19.1506 40.8424 17.9038 40.6056 16.7405 40.0414C15.1524 39.2682 14.0797 38.0353 13.4597 36.3914C13.1254 35.4998 13 34.5664 13 33.6121C13 30.0039 13 26.3957 13 22.7945" stroke="white" stroke-miterlimit="10" stroke-linecap="round" stroke-linejoin="round"/>
<path d="M19.945 21.8054C19.945 22.1746 19.938 22.5438 19.945 22.9199C19.9589 23.5538 20.3978 24.0135 20.9898 24.0205C21.5958 24.0274 22.0556 23.5677 22.0625 22.9199C22.0695 22.1955 22.0695 21.4711 22.0625 20.7466C22.0556 20.1128 21.6098 19.653 21.0177 19.6461C20.4117 19.6391 19.9589 20.1058 19.945 20.7466C19.938 21.1019 19.945 21.4502 19.945 21.8054Z" stroke="white" stroke-miterlimit="10"/>
<path d="M2.33594 4.46484C1.69271 4.27995 1.22396 4.05339 0.929688 3.78516C0.638021 3.51432 0.492188 3.18099 0.492188 2.78516C0.492188 2.33724 0.670573 1.96745 1.02734 1.67578C1.38672 1.38151 1.85286 1.23438 2.42578 1.23438C2.81641 1.23438 3.16406 1.3099 3.46875 1.46094C3.77604 1.61198 4.01302 1.82031 4.17969 2.08594C4.34896 2.35156 4.43359 2.64193 4.43359 2.95703H3.67969C3.67969 2.61328 3.57031 2.34375 3.35156 2.14844C3.13281 1.95052 2.82422 1.85156 2.42578 1.85156C2.05599 1.85156 1.76693 1.93359 1.55859 2.09766C1.35286 2.25911 1.25 2.48438 1.25 2.77344C1.25 3.00521 1.34766 3.20182 1.54297 3.36328C1.74089 3.52214 2.07552 3.66797 2.54688 3.80078C3.02083 3.93359 3.39062 4.08073 3.65625 4.24219C3.92448 4.40104 4.1224 4.58724 4.25 4.80078C4.38021 5.01432 4.44531 5.26562 4.44531 5.55469C4.44531 6.01562 4.26562 6.38542 3.90625 6.66406C3.54688 6.9401 3.06641 7.07812 2.46484 7.07812C2.07422 7.07812 1.70964 7.00391 1.37109 6.85547C1.03255 6.70443 0.770833 6.4987 0.585938 6.23828C0.403646 5.97786 0.3125 5.68229 0.3125 5.35156H1.06641C1.06641 5.69531 1.19271 5.96745 1.44531 6.16797C1.70052 6.36589 2.04036 6.46484 2.46484 6.46484C2.86068 6.46484 3.16406 6.38411 3.375 6.22266C3.58594 6.0612 3.69141 5.84115 3.69141 5.5625C3.69141 5.28385 3.59375 5.06901 3.39844 4.91797C3.20312 4.76432 2.84896 4.61328 2.33594 4.46484ZM6.99219 6.48828C7.25 6.48828 7.47526 6.41016 7.66797 6.25391C7.86068 6.09766 7.96745 5.90234 7.98828 5.66797H8.67188C8.65885 5.91016 8.57552 6.14062 8.42188 6.35938C8.26823 6.57812 8.0625 6.7526 7.80469 6.88281C7.54948 7.01302 7.27865 7.07812 6.99219 7.07812C6.41667 7.07812 5.95833 6.88672 5.61719 6.50391C5.27865 6.11849 5.10938 5.59245 5.10938 4.92578V4.80469C5.10938 4.39323 5.1849 4.02734 5.33594 3.70703C5.48698 3.38672 5.70312 3.13802 5.98438 2.96094C6.26823 2.78385 6.60286 2.69531 6.98828 2.69531C7.46224 2.69531 7.85547 2.83724 8.16797 3.12109C8.48307 3.40495 8.65104 3.77344 8.67188 4.22656H7.98828C7.96745 3.95312 7.86328 3.72917 7.67578 3.55469C7.49089 3.3776 7.26172 3.28906 6.98828 3.28906C6.62109 3.28906 6.33594 3.42188 6.13281 3.6875C5.93229 3.95052 5.83203 4.33203 5.83203 4.83203V4.96875C5.83203 5.45573 5.93229 5.83073 6.13281 6.09375C6.33333 6.35677 6.61979 6.48828 6.99219 6.48828ZM11.5273 3.42188C11.418 3.40365 11.2995 3.39453 11.1719 3.39453C10.6979 3.39453 10.3763 3.59635 10.207 4V7H9.48438V2.77344H10.1875L10.1992 3.26172C10.4362 2.88411 10.7721 2.69531 11.207 2.69531C11.3477 2.69531 11.4544 2.71354 11.5273 2.75V3.42188ZM11.9258 4.84766C11.9258 4.43359 12.0065 4.0612 12.168 3.73047C12.332 3.39974 12.5586 3.14453 12.8477 2.96484C13.1393 2.78516 13.4714 2.69531 13.8438 2.69531C14.4193 2.69531 14.8841 2.89453 15.2383 3.29297C15.5951 3.69141 15.7734 4.22135 15.7734 4.88281V4.93359C15.7734 5.34505 15.694 5.71484 15.5352 6.04297C15.3789 6.36849 15.1536 6.6224 14.8594 6.80469C14.5677 6.98698 14.2318 7.07812 13.8516 7.07812C13.2786 7.07812 12.8138 6.87891 12.457 6.48047C12.1029 6.08203 11.9258 5.55469 11.9258 4.89844V4.84766ZM12.6523 4.93359C12.6523 5.40234 12.7604 5.77865 12.9766 6.0625C13.1953 6.34635 13.487 6.48828 13.8516 6.48828C14.2188 6.48828 14.5104 6.34505 14.7266 6.05859C14.9427 5.76953 15.0508 5.36589 15.0508 4.84766C15.0508 4.38411 14.9401 4.00911 14.7188 3.72266C14.5 3.43359 14.2083 3.28906 13.8438 3.28906C13.487 3.28906 13.1992 3.43099 12.9805 3.71484C12.7617 3.9987 12.6523 4.40495 12.6523 4.93359ZM17.4648 7H16.7422V1H17.4648V7ZM19.4102 7H18.6875V1H19.4102V7ZM22.668 7V1.3125H24.2734C24.7682 1.3125 25.2057 1.42188 25.5859 1.64062C25.9661 1.85938 26.2591 2.17057 26.4648 2.57422C26.6732 2.97786 26.7786 3.44141 26.7812 3.96484V4.32812C26.7812 4.86458 26.6771 5.33464 26.4688 5.73828C26.263 6.14193 25.9674 6.45182 25.582 6.66797C25.1992 6.88411 24.7526 6.99479 24.2422 7H22.668ZM23.418 1.92969V6.38672H24.207C24.7852 6.38672 25.2344 6.20703 25.5547 5.84766C25.8776 5.48828 26.0391 4.97656 26.0391 4.3125V3.98047C26.0391 3.33464 25.8867 2.83333 25.582 2.47656C25.2799 2.11719 24.8503 1.9349 24.293 1.92969H23.418ZM27.6133 4.84766C27.6133 4.43359 27.694 4.0612 27.8555 3.73047C28.0195 3.39974 28.2461 3.14453 28.5352 2.96484C28.8268 2.78516 29.1589 2.69531 29.5312 2.69531C30.1068 2.69531 30.5716 2.89453 30.9258 3.29297C31.2826 3.69141 31.4609 4.22135 31.4609 4.88281V4.93359C31.4609 5.34505 31.3815 5.71484 31.2227 6.04297C31.0664 6.36849 30.8411 6.6224 30.5469 6.80469C30.2552 6.98698 29.9193 7.07812 29.5391 7.07812C28.9661 7.07812 28.5013 6.87891 28.1445 6.48047C27.7904 6.08203 27.6133 5.55469 27.6133 4.89844V4.84766ZM28.3398 4.93359C28.3398 5.40234 28.4479 5.77865 28.6641 6.0625C28.8828 6.34635 29.1745 6.48828 29.5391 6.48828C29.9062 6.48828 30.1979 6.34505 30.4141 6.05859C30.6302 5.76953 30.7383 5.36589 30.7383 4.84766C30.7383 4.38411 30.6276 4.00911 30.4062 3.72266C30.1875 3.43359 29.8958 3.28906 29.5312 3.28906C29.1745 3.28906 28.8867 3.43099 28.668 3.71484C28.4492 3.9987 28.3398 4.40495 28.3398 4.93359ZM36.1094 6.00391L36.9219 2.77344H37.6445L36.4141 7H35.8281L34.8008 3.79688L33.8008 7H33.2148L31.9883 2.77344H32.707L33.5391 5.9375L34.5234 2.77344H35.1055L36.1094 6.00391ZM39.0664 2.77344L39.0898 3.30469C39.4128 2.89844 39.8346 2.69531 40.3555 2.69531C41.2487 2.69531 41.6992 3.19922 41.707 4.20703V7H40.9844V4.20312C40.9818 3.89844 40.9115 3.67318 40.7734 3.52734C40.638 3.38151 40.4258 3.30859 40.1367 3.30859C39.9023 3.30859 39.6966 3.37109 39.5195 3.49609C39.3424 3.62109 39.2044 3.78516 39.1055 3.98828V7H38.3828V2.77344H39.0664Z" fill="white"/>
<circle cx="21" cy="50" r="2" fill="white"/>
<circle cx="21" cy="60" r="1" fill="white"/>
<circle cx="21" cy="71" r="1" fill="white"/>
</svg>
