<svg width="35" height="35" viewBox="0 0 35 35" fill="none" xmlns="http://www.w3.org/2000/svg">
<path d="M32.8125 20.4531C32.7906 19.9719 32.8125 19.4688 32.8125 18.9875C32.8125 18.4844 32.8344 17.9812 32.8125 17.4781C32.7688 15.1594 32.5281 13.5406 31.4125 11.1125C29.5094 7 25.7687 3.87187 21.4156 2.7125C20.1469 2.3625 18.8125 2.1875 17.5 2.1875C9.05625 2.1875 2.1875 9.05625 2.1875 17.5C2.1875 25.9437 9.05625 32.8125 17.5 32.8125C20.9125 32.8125 23.7781 31.8063 25.6156 29.9906C26.4688 29.1375 26.4688 27.7594 25.6156 26.9063C24.7625 26.0531 23.3844 26.0531 22.5313 26.9063C21.525 27.8688 19.7094 28.4375 17.5 28.4375C11.4625 28.4375 6.5625 23.5375 6.5625 17.5C6.5625 11.4625 11.4625 6.5625 17.5 6.5625C18.4406 6.5625 19.3812 6.69375 20.3 6.9125C23.4281 7.72188 26.0969 9.975 27.4531 12.9063C28.2625 14.6563 28.4156 15.6406 28.4594 17.5219C28.4594 17.9813 28.4594 18.4406 28.4594 18.8781C28.4594 19.425 28.4375 19.9719 28.4594 20.5406C28.4594 20.8688 28.4812 21.6562 28.3937 21.8312C28.3937 21.8312 28.35 21.8969 28.1531 21.9844C27.7375 22.2031 27.2344 22.225 26.9719 22.05C26.5344 21.7875 26.25 20.825 26.25 19.6875V13.125C26.25 11.9219 25.2656 10.9375 24.0625 10.9375C23.8219 10.9375 23.6031 11.0031 23.3844 11.0687C21.8312 9.64687 19.775 8.75 17.5 8.75C12.6656 8.75 8.75 12.6656 8.75 17.5C8.75 22.3344 12.6656 26.25 17.5 26.25C19.6438 26.25 21.5688 25.4406 23.1 24.1719C23.4938 24.7844 23.975 25.3312 24.5438 25.7031C26.1406 26.7531 28.2625 26.8188 30.1 25.9C32.9219 24.4781 32.8562 21.9625 32.8125 20.4531ZM17.5 21.875C15.0937 21.875 13.125 19.9063 13.125 17.5C13.125 15.0937 15.0937 13.125 17.5 13.125C19.9063 13.125 21.875 15.0937 21.875 17.5C21.875 19.9063 19.9063 21.875 17.5 21.875Z" fill="white"/>
</svg>
