<svg width="22" height="22" viewBox="0 0 22 22" fill="none" xmlns="http://www.w3.org/2000/svg">
<path d="M21.5 13.025C21.485 12.695 21.5 12.35 21.5 12.02C21.5 11.675 21.515 11.33 21.5 10.985C21.47 9.395 21.305 8.285 20.54 6.62C19.235 3.8 16.67 1.655 13.685 0.86C12.815 0.62 11.9 0.5 11 0.5C5.21 0.5 0.5 5.21 0.5 11C0.5 16.79 5.21 21.5 11 21.5C13.34 21.5 15.305 20.81 16.565 19.565C17.15 18.98 17.15 18.035 16.565 17.45C15.98 16.865 15.035 16.865 14.45 17.45C13.76 18.11 12.515 18.5 11 18.5C6.86 18.5 3.5 15.14 3.5 11C3.5 6.86 6.86 3.5 11 3.5C11.645 3.5 12.29 3.59 12.92 3.74C15.065 4.295 16.895 5.84 17.825 7.85C18.38 9.05 18.485 9.725 18.515 11.015C18.515 11.33 18.515 11.645 18.515 11.945C18.515 12.32 18.5 12.695 18.515 13.085C18.515 13.31 18.53 13.85 18.47 13.97C18.47 13.97 18.44 14.015 18.305 14.075C18.02 14.225 17.675 14.24 17.495 14.12C17.195 13.94 17 13.28 17 12.5V8C17 7.175 16.325 6.5 15.5 6.5C15.335 6.5 15.185 6.545 15.035 6.59C13.97 5.615 12.56 5 11 5C7.685 5 5 7.685 5 11C5 14.315 7.685 17 11 17C12.47 17 13.79 16.445 14.84 15.575C15.11 15.995 15.44 16.37 15.83 16.625C16.925 17.345 18.38 17.39 19.64 16.76C21.575 15.785 21.53 14.06 21.5 13.025ZM11 14C9.35 14 8 12.65 8 11C8 9.35 9.35 8 11 8C12.65 8 14 9.35 14 11C14 12.65 12.65 14 11 14Z" fill="#BEBEBE"/>
</svg>
