<svg width="24" height="24" viewBox="0 0 24 24" fill="none" xmlns="http://www.w3.org/2000/svg">
<path d="M19.5 2.25H4.5C3.90326 2.25 3.33097 2.48705 2.90901 2.90901C2.48705 3.33097 2.25 3.90326 2.25 4.5V22.8075L6.09 18.9675C6.23373 18.8304 6.42392 18.7528 6.6225 18.75H19.5C20.0967 18.75 20.669 18.5129 21.091 18.091C21.5129 17.669 21.75 17.0967 21.75 16.5V4.5C21.75 3.90326 21.5129 3.33097 21.091 2.90901C20.669 2.48705 20.0967 2.25 19.5 2.25ZM20.25 16.5C20.25 16.6989 20.171 16.8897 20.0303 17.0303C19.8897 17.171 19.6989 17.25 19.5 17.25H6.6225C6.02596 17.2505 5.45405 17.4879 5.0325 17.91L3.75 19.1925V4.5C3.75 4.30109 3.82902 4.11032 3.96967 3.96967C4.11032 3.82902 4.30109 3.75 4.5 3.75H19.5C19.6989 3.75 19.8897 3.82902 20.0303 3.96967C20.171 4.11032 20.25 4.30109 20.25 4.5V16.5Z" fill="#BEBEBE"/>
<path d="M16.5 8.25H7.5V9.75H16.5V8.25Z" fill="#BEBEBE"/>
<path d="M12.75 11.25H7.5V12.75H12.75V11.25Z" fill="#BEBEBE"/>
</svg>
