<svg width="66" height="66" viewBox="0 0 66 66" fill="none" xmlns="http://www.w3.org/2000/svg">
<path d="M2.06249 33C2.0625 26.8812 3.87695 20.8997 7.27641 15.8121C10.6759 10.7244 15.5076 6.75908 21.1607 4.41749C26.8138 2.07591 33.0343 1.46324 39.0356 2.65698C45.0369 3.85071 50.5494 6.79722 54.8761 11.1239C59.2028 15.4506 62.1493 20.9631 63.343 26.9644C64.5368 32.9657 63.9241 39.1862 61.5825 44.8393C59.2409 50.4924 55.2756 55.3242 50.1879 58.7236C45.1003 62.1231 39.1189 63.9375 33 63.9375C24.7949 63.9375 16.9258 60.678 11.1239 54.8761C5.32197 49.0742 2.06249 41.2052 2.06249 33ZM59.8125 33C59.8125 27.697 58.24 22.5131 55.2938 18.1038C52.3476 13.6945 48.16 10.2579 43.2607 8.2285C38.3614 6.19913 32.9703 5.66815 27.7691 6.70271C22.568 7.73728 17.7905 10.2909 14.0407 14.0407C10.2909 17.7905 7.73726 22.568 6.70269 27.7692C5.66812 32.9703 6.1991 38.3614 8.22847 43.2607C10.2578 48.1601 13.6945 52.3476 18.1038 55.2938C22.5131 58.24 27.697 59.8125 33 59.8125C40.1111 59.8125 46.931 56.9877 51.9593 51.9593C56.9876 46.931 59.8125 40.1111 59.8125 33Z" fill="white"/>
<path d="M25.0177 44.5294L36.5265 33L25.0177 21.4707C24.6336 21.0842 24.418 20.5615 24.418 20.0166C24.418 19.4717 24.6336 18.949 25.0177 18.5625C25.4042 18.1784 25.9269 17.9628 26.4718 17.9628C27.0167 17.9628 27.5394 18.1784 27.9259 18.5625L41.0433 31.68C41.391 32.0314 41.586 32.5057 41.586 33C41.586 33.4943 41.391 33.9686 41.0433 34.32L27.9258 47.4375C27.5394 47.8217 27.0167 48.0373 26.4718 48.0373C25.9269 48.0373 25.4042 47.8217 25.0177 47.4375C24.6336 47.0511 24.418 46.5284 24.418 45.9835C24.418 45.4386 24.6336 44.9158 25.0177 44.5294Z" fill="white"/>
</svg>
