<svg width="66" height="66" viewBox="0 0 66 66" fill="none" xmlns="http://www.w3.org/2000/svg">
<path d="M63.9375 33C63.9375 39.1188 62.123 45.1003 58.7236 50.1879C55.3241 55.2756 50.4924 59.2409 44.8393 61.5825C39.1862 63.9241 32.9657 64.5368 26.9644 63.343C20.9631 62.1493 15.4506 59.2028 11.1239 54.8761C6.79719 50.5494 3.85068 45.0369 2.65695 39.0356C1.46322 33.0343 2.07588 26.8138 4.41747 21.1607C6.75905 15.5076 10.7244 10.6758 15.812 7.27639C20.8997 3.87693 26.8811 2.06248 33 2.06248C41.2051 2.06248 49.0742 5.32195 54.8761 11.1239C60.678 16.9258 63.9375 24.7948 63.9375 33ZM6.18749 33C6.18749 38.303 7.76002 43.4869 10.7062 47.8962C13.6524 52.3055 17.84 55.7421 22.7393 57.7715C27.6386 59.8009 33.0297 60.3319 38.2309 59.2973C43.432 58.2627 48.2095 55.7091 51.9593 51.9593C55.7091 48.2095 58.2627 43.432 59.2973 38.2308C60.3319 33.0297 59.8009 27.6386 57.7715 22.7393C55.7421 17.8399 52.3055 13.6524 47.8962 10.7062C43.4869 7.76 38.303 6.18748 33 6.18748C25.8889 6.18748 19.069 9.01236 14.0407 14.0407C9.01237 19.069 6.18749 25.8889 6.18749 33Z" fill="white"/>
<path d="M40.982 21.4706L29.4733 33L40.982 44.5293C41.3662 44.9158 41.5818 45.4385 41.5818 45.9834C41.5818 46.5283 41.3662 47.051 40.982 47.4375C40.5956 47.8216 40.0728 48.0372 39.528 48.0372C38.9831 48.0372 38.4603 47.8216 38.0739 47.4375L24.9564 34.32C24.6088 33.9686 24.4138 33.4943 24.4138 33C24.4138 32.5057 24.6088 32.0314 24.9564 31.68L38.0739 18.5625C38.4603 18.1783 38.9831 17.9627 39.528 17.9627C40.0728 17.9627 40.5956 18.1783 40.982 18.5625C41.3662 18.9489 41.5818 19.4716 41.5818 20.0165C41.5818 20.5614 41.3662 21.0842 40.982 21.4706Z" fill="white"/>
</svg>
