<svg width="77" height="77" viewBox="0 0 77 77" fill="none" xmlns="http://www.w3.org/2000/svg">
<path d="M72.8611 15.1112C72.5628 15.4119 72.208 15.6506 71.817 15.8135C71.426 15.9764 71.0067 16.0603 70.5831 16.0603C70.1596 16.0603 69.7403 15.9764 69.3493 15.8135C68.9583 15.6506 68.6035 15.4119 68.3052 15.1112L67.3748 14.1487L47.804 33.7517L38.4998 68.2092C38.3118 68.9091 37.8923 69.5247 37.3098 69.9559C36.7272 70.387 36.0158 70.6081 35.2915 70.5833C34.6189 70.5851 33.9627 70.3754 33.4158 69.9839C32.8689 69.5924 32.4588 69.0389 32.2436 68.4016L26.3402 50.6596L8.59814 44.9167C7.93408 44.6934 7.36133 44.259 6.96739 43.6796C6.57344 43.1003 6.37996 42.4079 6.41647 41.7083C6.39166 40.984 6.61282 40.2726 7.04393 39.69C7.47504 39.1074 8.0907 38.688 8.79064 38.5L43.2481 29.1958L62.8511 9.62499L61.8886 8.69457C61.2844 8.09043 60.945 7.27104 60.945 6.41665C60.945 5.56227 61.2844 4.74288 61.8886 4.13873C62.4927 3.53459 63.3121 3.19519 64.1665 3.19519C65.0209 3.19519 65.8402 3.53459 66.4444 4.13873L72.8611 10.5554C73.1618 10.8537 73.4005 11.2085 73.5633 11.5995C73.7262 11.9904 73.8101 12.4098 73.8101 12.8333C73.8101 13.2569 73.7262 13.6762 73.5633 14.0672C73.4005 14.4581 73.1618 14.813 72.8611 15.1112Z" fill="white"/>
</svg>
