<svg width="77" height="77" viewBox="0 0 77 77" fill="none" xmlns="http://www.w3.org/2000/svg">
<g clip-path="url(#clip0)">
<path d="M67.375 38.5C67.0559 38.5 66.7499 38.6268 66.5243 38.8524C66.2986 39.078 66.1719 39.384 66.1719 39.7031V42.1094C66.1719 42.4285 66.2986 42.7345 66.5243 42.9601C66.7499 43.1857 67.0559 43.3125 67.375 43.3125C67.6941 43.3125 68.0001 43.1857 68.2257 42.9601C68.4514 42.7345 68.5781 42.4285 68.5781 42.1094V39.7031C68.5781 39.384 68.4514 39.078 68.2257 38.8524C68.0001 38.6268 67.6941 38.5 67.375 38.5Z" fill="white"/>
<path d="M30.0781 18.0469C30.3972 18.0469 30.7032 17.9201 30.9289 17.6945C31.1545 17.4689 31.2812 17.1628 31.2812 16.8438V14.4375C31.2812 14.1184 31.1545 13.8124 30.9289 13.5868C30.7032 13.3611 30.3972 13.2344 30.0781 13.2344C29.759 13.2344 29.453 13.3611 29.2274 13.5868C29.0018 13.8124 28.875 14.1184 28.875 14.4375V16.8438C28.875 17.1628 29.0018 17.4689 29.2274 17.6945C29.453 17.9201 29.759 18.0469 30.0781 18.0469Z" fill="white"/>
<path d="M3.60938 7.21875C3.92846 7.21875 4.23448 7.09199 4.46011 6.86636C4.68574 6.64073 4.8125 6.33471 4.8125 6.01562V3.60938C4.8125 3.29029 4.68574 2.98427 4.46011 2.75864C4.23448 2.53301 3.92846 2.40625 3.60938 2.40625C3.29029 2.40625 2.98427 2.53301 2.75864 2.75864C2.53301 2.98427 2.40625 3.29029 2.40625 3.60938V6.01562C2.40625 6.33471 2.53301 6.64073 2.75864 6.86636C2.98427 7.09199 3.29029 7.21875 3.60938 7.21875Z" fill="white"/>
<path d="M10.8281 48.125C10.509 48.125 10.203 48.2518 9.97739 48.4774C9.75176 48.703 9.625 49.009 9.625 49.3281V51.7344C9.625 52.0535 9.75176 52.3595 9.97739 52.5851C10.203 52.8107 10.509 52.9375 10.8281 52.9375C11.1472 52.9375 11.4532 52.8107 11.6789 52.5851C11.9045 52.3595 12.0312 52.0535 12.0312 51.7344V49.3281C12.0312 49.009 11.9045 48.703 11.6789 48.4774C11.4532 48.2518 11.1472 48.125 10.8281 48.125Z" fill="white"/>
<path d="M54.1406 45.8114C54.1406 38.1764 47.7641 31.9117 39.7031 31.3378V6.01562H40.9062C41.2253 6.01562 41.5314 5.88887 41.757 5.66324C41.9826 5.43761 42.1094 5.13159 42.1094 4.8125V1.20312C42.1094 0.884036 41.9826 0.578017 41.757 0.352387C41.5314 0.126757 41.2253 0 40.9062 0L36.0938 0C35.7747 0 35.4686 0.126757 35.243 0.352387C35.0174 0.578017 34.8906 0.884036 34.8906 1.20312V4.8125C34.8906 5.13159 35.0174 5.43761 35.243 5.66324C35.4686 5.88887 35.7747 6.01562 36.0938 6.01562H37.2969V31.3342C33.8086 31.5606 30.4877 32.9114 27.8319 35.1842C27.5907 35.3933 27.4424 35.6898 27.4197 36.0083C27.397 36.3267 27.5018 36.6412 27.711 36.8824C27.9201 37.1236 28.2166 37.2719 28.535 37.2946C28.8535 37.3172 29.168 37.2125 29.4092 37.0033C31.942 34.8406 35.1696 33.6634 38.5 33.6875C45.797 33.6875 51.7344 39.1268 51.7344 45.8114C51.7247 48.4657 50.7861 51.0328 49.0815 53.0674C48.8926 53.2978 48.7959 53.5901 48.8101 53.8877C48.8243 54.1853 48.9485 54.4671 49.1585 54.6784C50.3433 55.8404 51.2871 57.225 51.9356 58.7526C52.5841 60.2802 52.9246 61.9208 52.9375 63.5803C52.9375 71.7063 45.1605 74.5938 38.5 74.5938C31.8395 74.5938 24.0625 71.7063 24.0625 63.5803C24.0753 61.9206 24.4157 60.2798 25.0642 58.7519C25.7127 57.2241 26.6565 55.8394 27.8415 54.6772C28.0515 54.4659 28.1757 54.1841 28.1899 53.8865C28.2041 53.5889 28.1074 53.2966 27.9185 53.0662C26.2142 51.0319 25.2756 48.4653 25.2656 45.8114C25.2632 44.1466 25.6332 42.5023 26.3484 40.9989C26.4819 40.711 26.4963 40.3821 26.3884 40.0838C26.2805 39.7854 26.0592 39.5417 25.7725 39.4057C25.4858 39.2698 25.1571 39.2526 24.8577 39.3578C24.5584 39.4631 24.3128 39.6823 24.1744 39.9678C23.1284 42.1672 22.6916 44.6069 22.9093 47.0326C23.1271 49.4584 23.9915 51.7813 25.4124 53.7592C23.008 56.4674 21.6727 59.9589 21.6562 63.5803C21.6562 71.6076 28.425 77 38.5 77C48.575 77 55.3438 71.6076 55.3438 63.5803C55.3274 59.9562 53.9903 56.4623 51.5828 53.7532C53.2437 51.438 54.1382 48.6608 54.1406 45.8114ZM37.2969 2.40625H39.7031V3.60938H37.2969V2.40625Z" fill="white"/>
<path d="M38.5 39.7031C37.3102 39.7031 36.1472 40.0559 35.1579 40.7169C34.1686 41.3779 33.3976 42.3175 32.9423 43.4167C32.487 44.5159 32.3679 45.7254 32.6 46.8923C32.8321 48.0593 33.405 49.1311 34.2463 49.9724C35.0876 50.8137 36.1595 51.3867 37.3264 51.6188C38.4933 51.8509 39.7029 51.7318 40.8021 51.2765C41.9013 50.8212 42.8408 50.0501 43.5018 49.0609C44.1628 48.0716 44.5156 46.9085 44.5156 45.7187C44.5137 44.1239 43.8793 42.5949 42.7516 41.4672C41.6238 40.3394 40.0949 39.705 38.5 39.7031ZM38.5 49.3281C37.7861 49.3281 37.0883 49.1164 36.4947 48.7198C35.9012 48.3232 35.4386 47.7595 35.1654 47.1C34.8922 46.4405 34.8207 45.7147 34.96 45.0146C35.0992 44.3144 35.443 43.6713 35.9478 43.1665C36.4526 42.6618 37.0957 42.318 37.7958 42.1787C38.496 42.0395 39.2217 42.1109 39.8812 42.3841C40.5408 42.6573 41.1045 43.1199 41.5011 43.7135C41.8977 44.307 42.1094 45.0049 42.1094 45.7187C42.1094 46.676 41.7291 47.5941 41.0522 48.271C40.3753 48.9478 39.4573 49.3281 38.5 49.3281Z" fill="white"/>
<path d="M34.8906 60.1562C34.5715 60.1562 34.2655 60.283 34.0399 60.5086C33.8143 60.7343 33.6875 61.0403 33.6875 61.3594C33.6875 61.6785 33.8143 61.9845 34.0399 62.2101C34.2655 62.4357 34.5715 62.5625 34.8906 62.5625H42.1094C42.4285 62.5625 42.7345 62.4357 42.9601 62.2101C43.1857 61.9845 43.3125 61.6785 43.3125 61.3594C43.3125 61.0403 43.1857 60.7343 42.9601 60.5086C42.7345 60.283 42.4285 60.1562 42.1094 60.1562H34.8906Z" fill="white"/>
<path d="M22.0364 21.5937C22.3396 21.4927 22.5902 21.2754 22.7331 20.9897C22.876 20.7039 22.8996 20.3731 22.7986 20.0699C22.6976 19.7668 22.4804 19.5162 22.1946 19.3733C21.9088 19.2303 21.578 19.2068 21.2749 19.3078L12.0313 22.3938V15.305L22.0364 11.9699C22.1865 11.9199 22.3253 11.8408 22.4448 11.7372C22.5644 11.6335 22.6623 11.5074 22.7331 11.3659C22.8039 11.2244 22.8461 11.0703 22.8573 10.9125C22.8686 10.7547 22.8486 10.5962 22.7986 10.4461C22.7486 10.296 22.6695 10.1573 22.5659 10.0377C22.4623 9.91819 22.3361 9.82024 22.1946 9.74946C22.0531 9.67869 21.899 9.63648 21.7412 9.62524C21.5834 9.614 21.425 9.63395 21.2749 9.68395L10.4467 13.2933C10.2069 13.3735 9.99842 13.5272 9.85091 13.7326C9.7034 13.938 9.62435 14.1846 9.625 14.4375V31.3125C8.58972 30.5165 7.32154 30.0828 6.01563 30.0781C4.82585 30.0781 3.66279 30.4309 2.67353 31.0919C1.68426 31.7529 0.913223 32.6925 0.457915 33.7917C0.00260647 34.8909 -0.116523 36.1004 0.115591 37.2673C0.347705 38.4343 0.920638 39.5061 1.76194 40.3474C2.60324 41.1887 3.67512 41.7617 4.84204 41.9938C6.00896 42.2259 7.2185 42.1068 8.31771 41.6515C9.41692 41.1961 10.3564 40.4251 11.0174 39.4359C11.6784 38.4466 12.0313 37.2835 12.0313 36.0937V24.9287L22.0364 21.5937ZM6.01563 39.7031C5.30176 39.7031 4.60393 39.4914 4.01037 39.0948C3.41681 38.6982 2.95419 38.1345 2.681 37.475C2.40781 36.8155 2.33634 36.0897 2.47561 35.3896C2.61487 34.6894 2.95863 34.0463 3.46341 33.5415C3.96819 33.0368 4.61132 32.693 5.31147 32.5537C6.01162 32.4145 6.73735 32.4859 7.39688 32.7591C8.0564 33.0323 8.62011 33.4949 9.01671 34.0885C9.41332 34.682 9.625 35.3799 9.625 36.0937C9.625 37.051 9.24473 37.9691 8.56784 38.646C7.89095 39.3228 6.97289 39.7031 6.01563 39.7031Z" fill="white"/>
<path d="M76.5849 0.293541C76.4542 0.180149 76.3005 0.0962987 76.1344 0.0477127C75.9683 -0.000873309 75.7937 -0.0130514 75.6224 0.0120094L58.7787 2.41826C58.4927 2.46016 58.2315 2.60358 58.0426 2.82228C57.8537 3.04099 57.7498 3.32037 57.75 3.60935V15.6719C56.7147 14.8759 55.4465 14.4422 54.1406 14.4375C53.6338 14.4372 53.1289 14.5007 52.6379 14.6264C52.3287 14.7061 52.0639 14.9055 51.9017 15.1805C51.7394 15.4556 51.6931 15.7838 51.7729 16.093C51.8526 16.4022 52.052 16.667 52.327 16.8292C52.6021 16.9915 52.9303 17.0378 53.2395 16.958C53.534 16.8828 53.8367 16.8444 54.1406 16.8437C54.9351 16.8442 55.7072 17.1068 56.3372 17.5908C56.9672 18.0748 57.4199 18.7531 57.6251 19.5206C57.8304 20.2881 57.7767 21.1018 57.4724 21.8357C57.1681 22.5695 56.6301 23.1825 55.942 23.5795C55.2539 23.9765 54.454 24.1354 53.6663 24.0315C52.8787 23.9276 52.1474 23.5668 51.5857 23.0049C51.024 22.4431 50.6634 21.7116 50.5598 20.9239C50.4561 20.1363 50.6153 19.3364 51.0125 18.6484C51.0927 18.5115 51.1451 18.3601 51.1666 18.2029C51.1881 18.0457 51.1783 17.8858 51.1377 17.7324C51.0972 17.579 51.0267 17.4352 50.9303 17.3091C50.8339 17.1831 50.7136 17.0773 50.5762 16.998C50.4387 16.9187 50.287 16.8673 50.1297 16.8469C49.9723 16.8264 49.8125 16.8373 49.6594 16.8788C49.5062 16.9204 49.3628 16.9919 49.2374 17.0891C49.112 17.1863 49.0071 17.3074 48.9287 17.4453C48.4681 18.2444 48.1975 19.1388 48.1377 20.0592C48.0779 20.9796 48.2305 21.9015 48.5838 22.7535C48.9371 23.6055 49.4817 24.3649 50.1753 24.9729C50.8689 25.5809 51.693 26.0212 52.584 26.2599C53.4749 26.4986 54.4088 26.5292 55.3135 26.3494C56.2181 26.1695 57.0693 25.7841 57.8013 25.2228C58.5332 24.6615 59.1263 23.9395 59.5346 23.1124C59.943 22.2853 60.1556 21.3755 60.1562 20.4531V4.65246L74.5937 2.59031V10.8594C73.5585 10.0634 72.2903 9.62967 70.9844 9.62498C69.7946 9.62498 68.6315 9.97779 67.6423 10.6388C66.653 11.2998 65.882 12.2393 65.4267 13.3385C64.9714 14.4377 64.8522 15.6473 65.0843 16.8142C65.3164 17.9811 65.8894 19.053 66.7307 19.8943C67.572 20.7356 68.6439 21.3085 69.8108 21.5406C70.9777 21.7728 72.1872 21.6536 73.2865 21.1983C74.3857 20.743 75.3252 19.972 75.9862 18.9827C76.6472 17.9934 77 16.8304 77 15.6406V1.2031C77.0001 1.0306 76.963 0.860099 76.8914 0.703164C76.8198 0.54623 76.7153 0.406531 76.5849 0.293541ZM70.9844 19.25C70.2705 19.25 69.5727 19.0383 68.9791 18.6417C68.3856 18.2451 67.9229 17.6814 67.6497 17.0219C67.3766 16.3623 67.3051 15.6366 67.4443 14.9364C67.5836 14.2363 67.9274 13.5932 68.4322 13.0884C68.9369 12.5836 69.5801 12.2398 70.2802 12.1006C70.9804 11.9613 71.7061 12.0328 72.3656 12.306C73.0251 12.5792 73.5889 13.0418 73.9855 13.6353C74.3821 14.2289 74.5937 14.9267 74.5937 15.6406C74.5937 16.5979 74.2135 17.5159 73.5366 18.1928C72.8597 18.8697 71.9416 19.25 70.9844 19.25Z" fill="white"/>
</g>
<defs>
<clipPath id="clip0">
<rect width="77" height="77" fill="white"/>
</clipPath>
</defs>
</svg>
