<svg width="45" height="45" viewBox="0 0 45 45" fill="none" xmlns="http://www.w3.org/2000/svg">
<rect width="45" height="45" fill="#07154D"/>
<path d="M32.6835 16.1357C32.6582 15.7402 32.331 15.4326 31.9345 15.4326H27.9648V14.2598C27.9648 11.9111 25.7373 10 22.9999 10C20.2626 10 18.0351 11.9111 18.0351 14.2598V15.4326H14.0654C13.6689 15.4326 13.3417 15.7402 13.3164 16.1357L12.2509 33.2031C12.2382 33.4102 12.3115 33.6123 12.4531 33.7637C12.5947 33.9141 12.7929 34 12.9999 34H32.9999C33.207 34 33.4052 33.9141 33.5468 33.7637C33.6884 33.6123 33.7617 33.4102 33.749 33.2031L32.6835 16.1357ZM19.5351 14.2598C19.5351 12.7383 21.0898 11.5 22.9999 11.5C24.9101 11.5 26.4648 12.7383 26.4648 14.2598V15.4326H19.5351V14.2598ZM18.0351 16.9326V18.5615C18.0351 18.9756 18.371 19.3115 18.7851 19.3115C19.1992 19.3115 19.5351 18.9756 19.5351 18.5615V16.9326H26.4648V18.5615C26.4648 18.9756 26.8007 19.3115 27.2148 19.3115C27.6289 19.3115 27.9648 18.9756 27.9648 18.5615V16.9326H31.2294L31.8793 27.333H14.1206L14.7705 16.9326H18.0351ZM13.7978 32.5L14.0582 28.333H31.9417L32.2021 32.5H13.7978Z" fill="white"/>
</svg>
