<svg width="24" height="24" viewBox="0 0 24 24" fill="none" xmlns="http://www.w3.org/2000/svg">
<path d="M21.4284 18.817C21.4284 19.8885 21.1025 20.7344 20.4508 21.355C19.799 21.9755 18.9329 22.2858 17.8525 22.2858H6.14718C5.06682 22.2858 4.20075 21.9755 3.54897 21.355C2.89718 20.7344 2.57129 19.8885 2.57129 18.817C2.57129 18.3438 2.58691 17.8818 2.61816 17.4309C2.64941 16.98 2.71191 16.4934 2.80566 15.9711C2.89941 15.4487 3.01772 14.9644 3.16057 14.5179C3.30343 14.0715 3.4954 13.6362 3.73647 13.2121C3.97754 12.788 4.25432 12.4264 4.56682 12.1273C4.87932 11.8282 5.26102 11.5894 5.71191 11.4108C6.16281 11.2322 6.66057 11.1429 7.20522 11.1429C7.28557 11.1429 7.47307 11.2389 7.76772 11.4309C8.06236 11.6228 8.39495 11.8371 8.76548 12.0737C9.13602 12.3103 9.61816 12.5246 10.2119 12.7166C10.8057 12.9086 11.4016 13.0045 11.9999 13.0045C12.5981 13.0045 13.1941 12.9086 13.7878 12.7166C14.3816 12.5246 14.8637 12.3103 15.2342 12.0737C15.6048 11.8371 15.9374 11.6228 16.232 11.4309C16.5266 11.2389 16.7141 11.1429 16.7945 11.1429C17.3391 11.1429 17.8369 11.2322 18.2878 11.4108C18.7387 11.5894 19.1204 11.8282 19.4329 12.1273C19.7454 12.4264 20.0222 12.788 20.2633 13.2121C20.5043 13.6362 20.6963 14.0715 20.8391 14.5179C20.982 14.9644 21.1003 15.4487 21.1941 15.9711C21.2878 16.4934 21.3503 16.98 21.3816 17.4309C21.4128 17.8818 21.4284 18.3438 21.4284 18.817ZM17.1427 6.85721C17.1427 8.27686 16.6405 9.48891 15.636 10.4934C14.6316 11.4978 13.4195 12.0001 11.9999 12.0001C10.5802 12.0001 9.36816 11.4978 8.3637 10.4934C7.35923 9.48891 6.857 8.27686 6.857 6.85721C6.857 5.43757 7.35923 4.22552 8.3637 3.22105C9.36816 2.21659 10.5802 1.71436 11.9999 1.71436C13.4195 1.71436 14.6316 2.21659 15.636 3.22105C16.6405 4.22552 17.1427 5.43757 17.1427 6.85721Z" fill="#BEBEBE"/>
</svg>
